<svg xmlns="http://www.w3.org/2000/svg" xmlns:xlink="http://www.w3.org/1999/xlink" xml:space="preserve" version="1.1" style="shape-rendering:geometricPrecision;text-rendering:geometricPrecision;image-rendering:optimizeQuality;" viewBox="0 0 2800 2500" x="0px" y="0px" fill-rule="evenodd" clip-rule="evenodd"><defs><style type="text/css">
   
    .fil0 {fill:#9f5bff ;fill-rule:nonzero}
   
  </style></defs><g><path class="fil0" d="M994 1653c0,-345 55,-544 170,-659 108,-109 261,-139 465,-142 0,-85 -19,-181 50,-181 37,0 310,179 314,173l287 166c34,20 34,69 0,88l-575 332c-34,20 -76,-5 -76,-44l0 0 0 -127c-265,21 -419,209 -541,419 -26,45 -94,26 -94,-25l0 0z"/></g></svg>